<svg id="Layer_1" data-name="Layer 1" xmlns="http://www.w3.org/2000/svg" viewBox="0 0 28.9 29.11"><defs><style>.cls-1{fill:#37668d;}.cls-2{fill:#f65265;}</style></defs><path class="cls-1" d="M23.56,1.4a6.57,6.57,0,0,1,4.75,2,6.6,6.6,0,0,1,2,4.9,7,7,0,0,1-1.92,5,6.19,6.19,0,0,1-4.73,2.06,6.44,6.44,0,0,1-4.78-2,6.73,6.73,0,0,1-2-4.84,7.41,7.41,0,0,1,.55-2.87A6.53,6.53,0,0,1,19,3.34a6.81,6.81,0,0,1,2.12-1.42A6.13,6.13,0,0,1,23.56,1.4Zm-3.36,7A3.56,3.56,0,0,0,21.26,11a3.29,3.29,0,0,0,4.74,0,3.5,3.5,0,0,0,1.05-2.68A3.53,3.53,0,0,0,26,5.69a3.36,3.36,0,0,0-2.38-1,3.28,3.28,0,0,0-2.36,1A3.55,3.55,0,0,0,20.2,8.37Z" transform="translate(-1.63 -1.13)"/><path class="cls-1" d="M8.83,16a6.43,6.43,0,0,1,4.64,2.16,6.69,6.69,0,0,1,1.81,5,7.12,7.12,0,0,1-2.08,4.95A6.14,6.14,0,0,1,8.44,30,6.35,6.35,0,0,1,3.77,27.8,6.81,6.81,0,0,1,2,22.86,7.82,7.82,0,0,1,2.65,20a6.68,6.68,0,0,1,3.71-3.56A6,6,0,0,1,8.83,16ZM5.24,22.89a3.62,3.62,0,0,0,1,2.72,3.35,3.35,0,0,0,2.32,1.12,3.34,3.34,0,0,0,2.38-.92A3.58,3.58,0,0,0,12,23.15a3.59,3.59,0,0,0-1-2.75,3.28,3.28,0,0,0-2.31-1.11,3.23,3.23,0,0,0-2.38.95A3.61,3.61,0,0,0,5.24,22.89Z" transform="translate(-1.63 -1.13)"/><path class="cls-2" d="M10.8,8.47l3.94,4.1a2.07,2.07,0,0,1,.68,1.2,1.83,1.83,0,0,1-.7,1.19,2,2,0,0,1-1.21.7c-.34,0-.73-.23-1.19-.73l-3.72-4L5.12,15.14c-.44.53-.82.79-1.14.8a2.07,2.07,0,0,1-1.25-.64c-.51-.44-.77-.81-.78-1.13a2.12,2.12,0,0,1,.62-1.24L6.26,8.6,2.32,4.5a2,2,0,0,1-.69-1.18,1.82,1.82,0,0,1,.7-1.2,2.11,2.11,0,0,1,1.22-.71c.34,0,.73.23,1.19.73L8.46,6.19l3.48-4.26c.44-.53.82-.79,1.14-.8a2.06,2.06,0,0,1,1.24.63,1.79,1.79,0,0,1,.78,1.16,2,2,0,0,1-.61,1.22Z" transform="translate(-1.63 -1.13)"/><path class="cls-2" d="M25.87,23l3.52,4.31A2,2,0,0,1,30,28.55a1.75,1.75,0,0,1-.78,1.1,2,2,0,0,1-1.24.59q-.5,0-1.11-.81l-3.32-4.24-3.75,3.87a1.78,1.78,0,0,1-1.18.68A2,2,0,0,1,17.4,29c-.47-.47-.69-.86-.67-1.17a2,2,0,0,1,.71-1.15l4-3.92-3.53-4.31a2,2,0,0,1-.59-1.21,1.77,1.77,0,0,1,.79-1.1,2,2,0,0,1,1.25-.6,1.74,1.74,0,0,1,1.11.8l3.32,4.25,3.75-3.87a1.83,1.83,0,0,1,1.19-.69,2.09,2.09,0,0,1,1.16.72A1.7,1.7,0,0,1,30.52,18a1.93,1.93,0,0,1-.69,1.14Z" transform="translate(-1.63 -1.13)"/></svg>